<svg width="48" height="48" viewBox="0 0 48 48" fill="none" xmlns="http://www.w3.org/2000/svg">
<path d="M23.8952 45.7905C35.9877 45.7905 45.7905 35.9876 45.7905 23.8952C45.7905 11.8028 35.9877 2 23.8952 2C11.8028 2 2 11.8028 2 23.8952C2 35.9876 11.8028 45.7905 23.8952 45.7905Z" fill="url(#paint0_linear)"/>
<path d="M24 48C10.7943 48 0 37.2058 0 24C0 10.7943 10.7943 0 24 0C37.2057 0 48 10.7943 48 24C47.8852 37.2058 37.2057 48 24 48Z" fill="url(#paint1_linear)"/>
<path d="M24 47C11.3445 47 1 36.6555 1 24C1 11.3445 11.3445 1 24 1C36.6555 1 47 11.3445 47 24C46.8899 36.6555 36.6555 47 24 47Z" fill="url(#paint2_linear)"/>
<path d="M25.3578 16.895H22.5369V31H25.3578V16.895Z" fill="white"/>
<path d="M31 22.5371H16.895V25.3581H31V22.5371Z" fill="white"/>
<defs>
<linearGradient id="paint0_linear" x1="2.04274" y1="23.9391" x2="45.7506" y2="23.9391" gradientUnits="userSpaceOnUse">
<stop stop-color="#E52D27"/>
<stop offset="1" stop-color="#B31217"/>
</linearGradient>
<linearGradient id="paint1_linear" x1="-0.0118278" y1="23.9894" x2="47.8976" y2="23.9894" gradientUnits="userSpaceOnUse">
<stop stop-color="white"/>
</linearGradient>
<linearGradient id="paint2_linear" x1="0.988665" y1="23.9899" x2="46.9018" y2="23.9899" gradientUnits="userSpaceOnUse">
<stop stop-color="#AC0500"/>
<stop offset="1" stop-color="#B31217"/>
</linearGradient>
</defs>
</svg>
