<svg width="74" height="77" viewBox="0 0 74 77" fill="none" xmlns="http://www.w3.org/2000/svg">
<g filter="url(#filter0_d)">
<path opacity="0.6" d="M36.7 68.5001C54.7597 68.5001 69.4 53.8598 69.4 35.8C69.4 17.7403 54.7597 3.1001 36.7 3.1001C18.6403 3.1001 4 17.7403 4 35.8C4 53.8598 18.6403 68.5001 36.7 68.5001Z" fill="white"/>
<path opacity="0.8" d="M37.2 66.2001C53.9895 66.2001 67.6 52.5896 67.6 35.8001C67.6 19.0107 53.9895 5.40015 37.2 5.40015C20.4106 5.40015 6.80005 19.0107 6.80005 35.8001C6.80005 52.5896 20.4106 66.2001 37.2 66.2001Z" fill="white"/>
<path d="M37.2 64.0001C52.7744 64.0001 65.4 51.3745 65.4 35.8C65.4 20.2256 52.7744 7.6001 37.2 7.6001C21.6256 7.6001 9 20.2256 9 35.8C9 51.3745 21.6256 64.0001 37.2 64.0001Z" fill="url(#paint0_linear)"/>
<path d="M39.9001 42.0001C36.8001 42.0001 33.7001 42.0001 30.6001 42.0001C29.4001 42.0001 29.1001 41.7002 28.8001 40.6002C27.5001 35.2002 26.2001 29.9001 24.9001 24.5001C24.8001 24.1001 24.7001 24.0001 24.3001 24.0001C23.4001 24.0001 22.6001 24.0001 21.7001 24.0001C21.1001 24.0001 20.6001 23.6002 20.5001 23.1002C20.3001 22.6002 20.5001 22.0001 20.9001 21.7001C21.1001 21.5001 21.3001 21.4001 21.6001 21.4001C23.0001 21.4001 24.4001 21.4001 25.8001 21.4001C26.5001 21.4001 26.9001 21.8001 27.1001 22.5001C27.4001 23.9001 27.8001 25.2002 28.1001 26.6002C28.2001 27.1002 28.2001 27.1002 28.8001 27.1002C36.7001 27.1002 44.6001 27.1002 52.4001 27.1002C52.7001 27.1002 53.0001 27.1001 53.2001 27.2001C53.8001 27.5001 54.0001 28.0001 53.8001 28.8001C53.3001 30.8001 52.8001 32.8001 52.3001 34.8001C51.8001 36.8001 51.3001 38.7001 50.8001 40.7001C50.5001 41.7001 50.1001 42.0001 49.1001 42.0001C46.2001 42.0001 43.1001 42.0001 39.9001 42.0001ZM40.0001 29.7001C36.5001 29.7001 32.9001 29.7001 29.4001 29.7001C29.0001 29.7001 29.0001 29.8002 29.1001 30.1002C29.8001 33.0002 30.5001 35.9001 31.2001 38.8001C31.3001 39.2001 31.5001 39.3001 31.9001 39.3001C37.3001 39.3001 42.8001 39.3001 48.2001 39.3001C48.8001 39.3001 48.8001 39.3001 48.9001 38.8001C49.6001 35.9001 50.3001 33.0002 51.0001 30.1002C51.1001 29.6002 51.1001 29.6002 50.6001 29.6002C47.0001 29.7002 43.5001 29.7001 40.0001 29.7001Z" fill="#FCFCFC"/>
<path d="M47.0001 52.1002C44.7001 52.1002 42.8 50.2002 42.8 47.9002C42.8 45.6002 44.7 43.7002 47.1 43.7002C49.4 43.7002 51.3 45.6002 51.3 47.9002C51.2 50.3002 49.3001 52.1002 47.0001 52.1002ZM45.4001 47.9002C45.4001 48.8002 46.1001 49.5002 47.0001 49.5002C47.9001 49.5002 48.6 48.8002 48.6 47.9002C48.6 47.0002 47.9001 46.3002 47.0001 46.2002C46.2001 46.3002 45.4001 47.0002 45.4001 47.9002Z" fill="#FCFCFC"/>
<path d="M31.8001 52.1002C29.4001 52.1002 27.6001 50.2002 27.6001 47.9002C27.6001 45.6002 29.5001 43.7002 31.8001 43.7002C34.1001 43.7002 36.0001 45.6002 36.0001 47.9002C36.1001 50.3002 34.2001 52.1002 31.8001 52.1002ZM31.8001 49.6002C32.7001 49.6002 33.4001 48.9002 33.4001 48.0002C33.4001 47.1002 32.7001 46.4002 31.8001 46.4002C30.9001 46.4002 30.2001 47.1002 30.2001 48.0002C30.2001 48.8002 30.9001 49.5002 31.8001 49.6002Z" fill="#FCFCFC"/>
</g>
<defs>
<filter id="filter0_d" x="0" y="0.456543" width="73.4" height="76.0435" filterUnits="userSpaceOnUse" color-interpolation-filters="sRGB">
<feFlood flood-opacity="0" result="BackgroundImageFix"/>
<feColorMatrix in="SourceAlpha" type="matrix" values="0 0 0 0 0 0 0 0 0 0 0 0 0 0 0 0 0 0 127 0"/>
<feOffset dy="4"/>
<feGaussianBlur stdDeviation="2"/>
<feColorMatrix type="matrix" values="0 0 0 0 0 0 0 0 0 0 0 0 0 0 0 0 0 0 0.25 0"/>
<feBlend mode="normal" in2="BackgroundImageFix" result="effect1_dropShadow"/>
<feBlend mode="normal" in="SourceGraphic" in2="effect1_dropShadow" result="shape"/>
</filter>
<linearGradient id="paint0_linear" x1="8.9988" y1="35.8482" x2="65.4642" y2="35.8482" gradientUnits="userSpaceOnUse">
<stop stop-color="#E52D27"/>
<stop offset="1" stop-color="#B31217"/>
</linearGradient>
<linearGradient id="paint1_linear" x1="44.9643" y1="10.8027" x2="65.6864" y2="10.8027" gradientUnits="userSpaceOnUse">
<stop stop-color="#E52D27"/>
<stop offset="1" stop-color="#B31217"/>
</linearGradient>
</defs>
</svg>
