<svg width="19" height="19" viewBox="0 0 19 19" fill="none" xmlns="http://www.w3.org/2000/svg">
<path d="M9.30002 18.8519C7.50002 18.8519 5.70002 18.8519 3.90002 18.8519C2.20002 18.8519 0.800012 17.852 0.200012 16.252C0.100012 15.852 0 15.4519 0 15.0519C0 14.2519 0 13.452 0 12.652C0 12.152 0.300018 11.752 0.800018 11.752C1.30002 11.752 1.60001 12.052 1.60001 12.652C1.60001 13.452 1.60001 14.152 1.60001 14.952C1.60001 15.952 2.1 16.6519 3 17.0519C3.3 17.2519 3.7 17.252 4 17.252C6.9 17.252 9.70001 17.252 12.6 17.252C13.3 17.252 14 17.252 14.7 17.252C15.8 17.252 16.8 16.4519 17 15.3519C17 15.1519 17 15.0519 17 14.8519C17 14.1519 17 13.452 17 12.752C17 12.152 17.4 11.8519 17.9 11.8519C18.3 11.8519 18.6 12.1519 18.6 12.5519C18.6 13.4519 18.6 14.352 18.6 15.252C18.5 16.952 17.1 18.452 15.3 18.752C15.1 18.752 14.8 18.752 14.6 18.752C12.9 18.852 11.1 18.8519 9.30002 18.8519Z" fill="#424242"/>
<path d="M10.1 4.75204C10.1 5.95204 10.1 7.25205 10.1 8.45205C10.1 8.75205 10.1001 8.75204 10.4001 8.75204C10.8001 8.75204 11.2 8.75204 11.6 8.75204C11.9 8.75204 12.2001 8.85206 12.4001 9.15206C12.6001 9.45206 12.5001 9.75203 12.3001 10.052C11.5001 11.052 10.8 12.052 10 13.052C9.60004 13.552 9.00005 13.552 8.70005 13.052C7.90005 12.052 7.20006 11.052 6.40006 10.052C6.20006 9.75203 6.20006 9.45206 6.30006 9.15206C6.50006 8.85206 6.70005 8.65206 7.10005 8.65206C7.50005 8.65206 7.90006 8.65206 8.30006 8.65206C8.50006 8.65206 8.60005 8.55201 8.60005 8.35201C8.60005 5.85201 8.60005 3.45205 8.60005 0.952051C8.60005 0.552051 8.80005 0.252027 9.10005 0.0520269C9.60005 -0.147973 10.2001 0.252015 10.2001 0.852015C10.2001 1.65201 10.2001 2.45206 10.2001 3.15206C10.1001 3.75206 10.1 4.25204 10.1 4.75204Z" fill="#424242"/>
</svg>
