<svg width="76" height="60" viewBox="0 0 76 60" fill="none" xmlns="http://www.w3.org/2000/svg">
<path d="M63.9001 58.9H9.40009C5.10009 58.9 1.6001 55.4 1.6001 51.1V8.89999C1.6001 4.59999 5.10009 1.10001 9.40009 1.10001H63.9001C68.2001 1.10001 71.7001 4.59999 71.7001 8.89999V51C71.8001 55.4 68.3001 58.9 63.9001 58.9Z" stroke="#545454" stroke-width="2" stroke-miterlimit="10"/>
<path d="M65.8002 12.6H7.7002C4.4002 12.6 1.7002 9.90001 1.7002 6.60001C1.7002 3.30001 4.4002 0.600006 7.7002 0.600006H65.8002C69.1002 0.600006 71.8002 3.30001 71.8002 6.60001C71.8002 9.90001 69.1002 12.6 65.8002 12.6Z" fill="#545454"/>
<path d="M10.2 8C11.1389 8 11.9 7.23889 11.9 6.3C11.9 5.36112 11.1389 4.60001 10.2 4.60001C9.26111 4.60001 8.5 5.36112 8.5 6.3C8.5 7.23889 9.26111 8 10.2 8Z" fill="white"/>
<path d="M15.8999 8C16.8388 8 17.6 7.23889 17.6 6.3C17.6 5.36112 16.8388 4.60001 15.8999 4.60001C14.9611 4.60001 14.2 5.36112 14.2 6.3C14.2 7.23889 14.9611 8 15.8999 8Z" fill="white"/>
<path d="M21.5 8C22.4389 8 23.2 7.23889 23.2 6.3C23.2 5.36112 22.4389 4.60001 21.5 4.60001C20.5612 4.60001 19.8 5.36112 19.8 6.3C19.8 7.23889 20.5612 8 21.5 8Z" fill="white"/>
<path d="M18.3002 39.3C20.5646 39.3 22.4002 37.4644 22.4002 35.2C22.4002 32.9356 20.5646 31.1 18.3002 31.1C16.0358 31.1 14.2002 32.9356 14.2002 35.2C14.2002 37.4644 16.0358 39.3 18.3002 39.3Z" fill="#545454"/>
<path d="M31.9003 39.3C34.1647 39.3 36.0003 37.4644 36.0003 35.2C36.0003 32.9356 34.1647 31.1 31.9003 31.1C29.6359 31.1 27.8003 32.9356 27.8003 35.2C27.8003 37.4644 29.6359 39.3 31.9003 39.3Z" fill="#545454"/>
<path d="M45.6003 39.3C47.8646 39.3 49.7002 37.4644 49.7002 35.2C49.7002 32.9356 47.8646 31.1 45.6003 31.1C43.3359 31.1 41.5002 32.9356 41.5002 35.2C41.5002 37.4644 43.3359 39.3 45.6003 39.3Z" fill="#545454"/>
<path d="M71.8002 45.8C75.8002 42.9 76.6002 37.3 73.7002 33.4C70.8002 29.4 65.2002 28.6 61.3002 31.5C58.6002 33.5 57.3002 36.8 57.8002 39.9L46.9002 48C45.5002 49 45.2002 51 46.2002 52.4C47.2002 53.8 49.2002 54.1 50.6002 53.1L52.0002 55C52.5002 55.7 53.5002 55.8 54.2002 55.3C54.9002 54.8 55.0002 53.8 54.5002 53.1L53.1002 51.2L54.8002 50L55.7002 51.3C56.2002 52 57.2002 52.1 57.9002 51.6C58.6002 51.1 58.7002 50.1 58.2002 49.4L57.3002 48.1L60.9002 45.5C63.9002 48 68.5002 48.3 71.8002 45.8ZM69.1002 36.8C70.1002 38.2 69.8002 40.2 68.4002 41.2C67.0002 42.2 65.0002 41.9 64.0002 40.5C63.0002 39.1 63.3002 37.1 64.7002 36.1C66.1002 35.1 68.1002 35.4 69.1002 36.8Z" fill="#545454"/>
</svg>

