<svg width="51" height="53" viewBox="0 0 51 53" fill="none" xmlns="http://www.w3.org/2000/svg">
    <path d="M31 36.7H19.8C15.7 36.7 12.3 33.3 12.3 29.2V13.8C12.3 6.6 18.2 0.699997 25.4 0.699997C32.6 0.699997 38.5 6.6 38.5 13.8V29.2C38.5 33.3 35.2 36.7 31 36.7ZM25.4 5.4C20.8 5.4 17 9.2 17 13.8V29.2C17 30.8 18.3 32 19.8 32H31C32.6 32 33.8 30.7 33.8 29.2V13.8C33.9 9.1 30.1 5.4 25.4 5.4Z" fill="#210B0B"/>
    <path d="M43.5002 50H7.40015C4.90015 50 2.90015 48 2.90015 45.5V22.1C2.90015 19.6 4.90015 17.6 7.40015 17.6H43.5002C46.0002 17.6 48.0002 19.6 48.0002 22.1V45.5C47.9002 48 45.9002 50 43.5002 50Z" fill="white"/>
    <path d="M31.8001 52.3H19.1001C8.9001 52.3 0.600098 44 0.600098 33.8C0.600098 23.6 8.9001 15.3 19.1001 15.3H31.8001C42.0001 15.3 50.3001 23.6 50.3001 33.8C50.3001 44 42.0001 52.3 31.8001 52.3ZM19.1001 20C11.5001 20 5.30009 26.2 5.30009 33.8C5.30009 41.4 11.5001 47.6 19.1001 47.6H31.8001C39.4001 47.6 45.6001 41.4 45.6001 33.8C45.6001 26.2 39.4001 20 31.8001 20H19.1001Z" fill="#210B0B"/>
    <path d="M29.3 30.4C29.3 28.2 27.5 26.5 25.4 26.5C23.2 26.5 21.5 28.3 21.5 30.4C21.5 32.2 22.8 33.7 24.4 34.2V39.2H26.4V34.2C28.1 33.8 29.3 32.2 29.3 30.4Z" fill="#210B0B"/>
</svg>