<svg width="23" height="16" viewBox="0 0 23 16" fill="none" xmlns="http://www.w3.org/2000/svg">
<path d="M9.1 0.799927C10.9 0.799927 12.8 0.799927 14.6 0.799927C14.9 0.799927 15.2 0.899951 15.4 1.19995C15.5 1.39995 15.5 1.59995 15.5 1.69995C15.5 2.19995 15.5 2.19995 16 2.19995C16.8 2.19995 17.5 2.19995 18.3 2.19995C18.7 2.19995 19 2.39995 19.2 2.69995C19.8 3.89995 20.4 5.09993 21 6.29993C21.3 6.89993 21.8 7.39994 22.2 7.99994C22.5 8.39994 22.6 8.69995 22.6 9.19995C22.6 10.5 22.6 11.9 22.6 13.2C22.6 13.7 22.3 13.9999 21.8 13.9999C21.3 13.9999 20.7 13.9999 20.2 13.9999C20 13.9999 19.9 14 19.9 14.2C19.5 15.3 18.5 15.9999 17.3 15.9999C16.2 15.9999 15.1 15.3 14.7 14.2C14.6 14 14.5 13.8999 14.3 13.8999C13.1 13.8999 12 13.8999 10.8 13.8999C10.6 13.8999 10.5 14 10.4 14.2C10 15.3 8.8 16.0999 7.6 15.8999C6.5 15.7999 5.7 15.1999 5.2 14.0999C5.1 13.8999 5.1 13.8999 4.9 13.8999C4.4 13.8999 3.9 13.8999 3.4 13.8999C3 13.8999 2.8 13.6999 2.7 13.3999C2.6 13.0999 2.8 12.6999 3 12.5999C3.1 12.4999 3.3 12.4999 3.4 12.4999C3.9 12.4999 4.4 12.4999 4.9 12.4999C5.1 12.4999 5.2 12.3999 5.2 12.2999C5.6 11.2999 6.3 10.5999 7.5 10.4999C8.8 10.2999 10.1 11.0999 10.5 12.2999C10.6 12.4999 10.6 12.5999 10.8 12.4999C12 12.4999 13.1 12.4999 14.3 12.4999C14.5 12.4999 14.6 12.4 14.7 12.2C15.4 10.3 17.8 9.79994 19.2 11.0999C19.5 11.3999 19.8 11.8 19.9 12.2C19.9 12.3 20 12.3999 20.1 12.3999C20.4 12.3999 20.7 12.3999 21 12.3999C21.1 12.3999 21.2 12.3 21.2 12.2C21.2 11.1 21.2 9.99994 21.2 8.99994C21.2 8.89994 21.2 8.79993 21.1 8.79993C20.9 8.49993 20.6 8.19993 20.4 7.89993C20.3 7.69993 20.1 7.69995 19.9 7.69995C18.3 7.69995 16.7 7.69995 15 7.69995C14.4 7.69995 14.1 7.39993 14.1 6.79993C14.1 5.39993 14.1 3.89994 14.1 2.49994C14.1 2.29994 14 2.19995 13.8 2.19995C10.3 2.19995 6.9 2.19995 3.4 2.19995C2.9 2.19995 2.6 1.89993 2.6 1.39993C2.6 1.09993 2.8 0.899927 3.1 0.799927C3.2 0.799927 3.4 0.799927 3.5 0.799927C5.5 0.799927 7.3 0.799927 9.1 0.799927ZM17.5 6.29993C18 6.29993 18.6 6.29993 19.1 6.29993C19.4 6.29993 19.4 6.29994 19.3 6.09995C18.9 5.39995 18.6 4.59993 18.2 3.89993C18.1 3.69993 18 3.69995 17.9 3.69995C17.2 3.69995 16.6 3.69995 15.9 3.69995C15.7 3.69995 15.6 3.79994 15.6 3.99994C15.6 4.69994 15.6 5.39995 15.6 6.09995C15.6 6.29994 15.7 6.39993 15.9 6.39993C16.4 6.29993 17 6.29993 17.5 6.29993ZM18.6 13.2999C18.6 12.4999 18 11.8999 17.3 11.8999C16.6 11.8999 16 12.5 16 13.2C16 13.9 16.6 14.4999 17.3 14.5999C18 14.5999 18.6 13.9999 18.6 13.2999ZM6.5 13.2999C6.5 14.0999 7.1 14.6999 7.8 14.5999C8.5 14.5999 9.1 13.9999 9.1 13.2999C9.1 12.5999 8.5 11.8999 7.8 11.9999C7.1 11.8999 6.5 12.4999 6.5 13.2999Z" fill="#CE091C"/>
<path d="M4.4 6.3999C5.3 6.3999 6.3 6.3999 7.2 6.3999C7.7 6.3999 8 6.69991 8 7.09991C8 7.49991 7.7 7.7999 7.2 7.7999C5.3 7.7999 3.4 7.7999 1.5 7.7999C1.1 7.7999 0.800002 7.5999 0.700001 7.2999C0.600001 6.9999 0.799999 6.69991 1.1 6.49991C1.2 6.39991 1.4 6.3999 1.5 6.3999C2.5 6.3999 3.4 6.3999 4.4 6.3999Z" fill="#CE091C"/>
<path d="M5.5 5.09995C4.5 5.09995 3.6 5.09995 2.6 5.09995C2.3 5.09995 2 4.89995 1.9 4.59995C1.8 4.29995 1.9 3.99993 2.2 3.79993C2.3 3.69993 2.5 3.69995 2.7 3.69995C4.6 3.69995 6.5 3.69995 8.5 3.69995C9 3.69995 9.3 3.99993 9.3 4.39993C9.3 4.79993 9 5.09995 8.5 5.09995C7.4 5.09995 6.5 5.09995 5.5 5.09995Z" fill="#CE091C"/>
<path d="M4.2 10.5C3.7 10.5 3.2 10.5 2.7 10.5C2.2 10.5 1.9 10.2 1.9 9.79996C1.9 9.39996 2.2 9.09998 2.7 9.09998C3.4 9.09998 4.1 9.09998 4.7 9.09998C5 9.09998 5.4 9.09998 5.7 9.09998C6.3 9.09998 6.6 9.69998 6.3 10.2C6.2 10.4 5.9 10.5 5.7 10.5C5.2 10.5 4.7 10.5 4.2 10.5Z" fill="#CE091C"/>
</svg>
