<svg width="22" height="22" viewBox="0 0 22 22" fill="none" xmlns="http://www.w3.org/2000/svg">
<path d="M14.9 0.399975C16 0.399975 17.1 0.399975 18.2 0.399975C18.5 0.399975 18.7 0.499993 18.9 0.699993C19.1 0.899993 19.3 1.09999 19.4 1.19999C19.5 1.29999 19.6 1.29999 19.6 1.19999C19.8 0.999993 20 0.799987 20.2 0.599987C20.5 0.299987 20.8 0.299981 21.1 0.499981C21.4 0.699981 21.4 1.19998 21.1 1.49998C20.9 1.69998 20.7 1.89999 20.5 2.09999C20.4 2.19999 20.4 2.29997 20.5 2.39997C20.7 2.59997 20.9 2.79997 21.1 2.89997C21.2 2.99997 21.3 3.19997 21.3 3.39997C21.3 5.59997 21.3 7.79998 21.3 9.99998C21.3 10.2 21.2 10.4 21 10.6C20.3 11.3 19.5 12.1 18.8 12.8C16.2 15.4 13.6 18 10.9 20.7C10.4 21.2 10.1 21.2 9.7 20.7C6.8 17.8 3.8 14.8 0.900002 11.9C0.400002 11.4 0.400002 11.1 0.900002 10.7C4.2 7.39999 7.6 3.99999 10.9 0.699993C11.1 0.499993 11.3 0.399975 11.6 0.399975C12.8 0.399975 13.9 0.399975 14.9 0.399975ZM20.1 6.79997C20.1 5.89997 20.1 5.09999 20.1 4.19999C20.1 3.79999 20 3.49999 19.7 3.19999C19.6 3.09999 19.5 3.09999 19.4 3.19999C19 3.59999 18.6 3.99998 18.1 4.49998C18 4.59998 18 4.69997 18.1 4.79997C18.2 4.89997 18.3 4.89998 18.3 4.99998C18.5 5.19998 18.5 5.59997 18.3 5.79997C18.1 5.99997 17.7 6.09997 17.5 5.89997C16.9 5.29997 16.3 4.79999 15.8 4.19999C15.6 3.99999 15.6 3.59997 15.9 3.39997C16.1 3.19997 16.5 3.19997 16.7 3.39997C16.8 3.49997 16.9 3.59999 17 3.69999C17.1 3.79999 17.2 3.79999 17.3 3.69999C17.7 3.29999 18.2 2.79997 18.6 2.39997C18.6 2.39997 18.7 2.29999 18.7 2.19999C18.7 1.99999 18.2 1.69999 18 1.69999C16.1 1.69999 14.2 1.69999 12.3 1.69999C12.1 1.69999 12 1.79997 11.9 1.89997C8.8 4.99997 5.7 8.09999 2.6 11.2C2.5 11.3 2.5 11.4 2.6 11.6C5.2 14.2 7.8 16.8 10.5 19.5C10.6 19.6 10.7 19.6 10.9 19.5C14 16.4 17.1 13.3 20.2 10.2C20.3 10.1 20.4 9.89999 20.4 9.69999C20.1 8.69999 20.1 7.69997 20.1 6.79997Z" fill="#CE091C"/>
<path d="M11.6 13C10.9 13 10.1 13 9.4 13C8.9 13 8.7 12.8 8.7 12.3C8.7 10.8 8.7 9.40003 8.7 7.90003C8.7 6.60003 9.8 5.40002 11.1 5.30002C12.6 5.10002 13.8 6.20003 14 7.40003C14 7.60003 14.1 7.60005 14.3 7.70005C15.4 8.00005 16.1 8.70002 16.3 9.80002C16.7 11.4 15.4 13 13.7 13C13.1 13 12.3 13 11.6 13ZM12.1 11.8C12.4 11.8 12.7 11.8 13 11.8C13.3 11.8 13.6 11.8 13.9 11.8C14.6 11.8 15.2 11.1 15.2 10.4C15.2 9.70003 14.6 9.00003 13.9 9.00003C13.1 9.00003 12.9 8.80003 12.9 8.00003C12.9 7.60003 12.7 7.30003 12.4 7.00003C11.9 6.60003 11.4 6.50002 10.9 6.80002C10.3 7.00002 10.1 7.50004 10.1 8.10004C10.1 9.30004 10.1 10.4 10.1 11.6C10.1 11.8 10.2 11.9 10.4 11.9C10.8 11.8 11.5 11.8 12.1 11.8Z" fill="#CE091C"/>
</svg>
