<svg width="27" height="6" viewBox="0 0 27 6" fill="none" xmlns="http://www.w3.org/2000/svg">
<g clip-path="url(#clip0)">
<path d="M2.6 5.2C4.03594 5.2 5.2 4.03594 5.2 2.6C5.2 1.16406 4.03594 0 2.6 0C1.16406 0 0 1.16406 0 2.6C0 4.03594 1.16406 5.2 2.6 5.2Z" fill="#8E8E8E"/>
<path d="M13.5 5.2C14.936 5.2 16.1 4.03594 16.1 2.6C16.1 1.16406 14.936 0 13.5 0C12.0641 0 10.9 1.16406 10.9 2.6C10.9 4.03594 12.0641 5.2 13.5 5.2Z" fill="#8E8E8E"/>
<path d="M24.4 5.2C25.8359 5.2 27 4.03594 27 2.6C27 1.16406 25.8359 0 24.4 0C22.964 0 21.8 1.16406 21.8 2.6C21.8 4.03594 22.964 5.2 24.4 5.2Z" fill="#8E8E8E"/>
</g>
<defs>
<clipPath id="clip0">
<rect width="27" height="5.1" fill="white"/>
</clipPath>
</defs>
</svg>
