<svg width="20" height="26" viewBox="0 0 20 26" fill="none" xmlns="http://www.w3.org/2000/svg">
<path d="M9.79569 25.2496C11.8529 25.2496 13.5206 23.5819 13.5206 21.5247C13.5206 19.4675 11.8529 17.7998 9.79569 17.7998C7.73849 17.7998 6.0708 19.4675 6.0708 21.5247C6.0708 23.5819 7.73849 25.2496 9.79569 25.2496Z" fill="white"/>
<path d="M9.79565 22.068C9.80891 22.015 9.80891 21.9222 9.79565 22.068V22.068Z" fill="white"/>
<path d="M9.79571 0.127209C4.57292 0.127209 0.331055 3.50744 0.331055 8.73024V21.5908C0.331055 22.0813 0.728729 22.479 1.2192 22.479H4.29455H4.5199C4.8778 22.479 5.15618 22.1741 5.12966 21.8295C5.11641 21.6969 5.11641 21.5776 5.11641 21.445C5.11641 18.8734 7.19757 16.7922 9.7692 16.7922C12.3408 16.7922 14.422 18.8734 14.422 21.445C14.422 21.5776 14.422 21.7102 14.4087 21.8295C14.3822 22.1741 14.6606 22.479 15.0185 22.479H15.2969H18.3987C18.8892 22.479 19.2869 22.0813 19.2869 21.5908V8.73024C19.2604 3.50744 15.0318 0.127209 9.79571 0.127209Z" fill="white"/>
</svg>
