<svg width="33" height="33" viewBox="0 0 33 33" fill="none" xmlns="http://www.w3.org/2000/svg">
      <path d="M16.2 31.7C24.8156 31.7 31.8 24.7156 31.8 16.1C31.8 7.48436 24.8156 0.5 16.2 0.5C7.58432 0.5 0.599976 7.48436 0.599976 16.1C0.599976 24.7156 7.58432 31.7 16.2 31.7Z" fill="white" stroke="#E8DC4B" stroke-width="0.9292" stroke-miterlimit="10"/>
      <path d="M16.4 19.3C13.8 19.3 11.2 19.3 8.59999 19.3C8.29999 19.3 8.19999 19.1999 8.09999 18.8999C7.59999 17.5999 7.29999 16.2999 7.09999 14.8999V14.8C7.09999 14.4999 6.99999 14.2999 6.59999 14.1999C5.69999 13.7999 5.19998 12.8999 5.39998 11.8999C5.49998 11.0999 6.29998 10.2999 7.19998 10.0999C8.29998 9.89995 9.49999 10.7999 9.59999 11.8999C9.69999 12.4999 9.49998 12.9999 9.19998 13.4999C9.09998 13.5999 9.09998 13.7 9.19998 13.8C10.1 14.7 11.3 14.9999 12.5 14.6999C13.7 14.3999 14.5 13.5999 14.9 12.3999C15 12.1999 14.9 12.0999 14.8 11.9999C13.9 10.7999 14.4 9.09994 15.9 8.69994C16.8 8.39994 17.7 8.69995 18.2 9.39995C18.8 10.0999 18.8 11.1 18.3 11.8C18.1 12.1 18.1 12.3999 18.2 12.6999C19 14.6999 21.5 15.4999 23.3 14.1999C23.4 14.0999 23.6 13.9999 23.7 13.8999C23.8 13.7999 23.8 13.6999 23.7 13.5999C22.9 12.5999 23.2 11.1999 24.3 10.4999C25 10.0999 25.9 9.99995 26.6 10.4999C27.3 10.9999 27.7 11.6999 27.5 12.6999C27.4 13.4999 26.9 14.0999 26.1 14.3999C25.9 14.4999 25.9 14.6 25.8 14.8C25.6 16.3 25.3 17.6999 24.7 19.0999C24.6 19.3999 24.4 19.4999 24.1 19.4999C21.6 19.2999 19 19.3 16.4 19.3Z" fill="#E8DC4B"/>
      <path d="M16.3999 20.6C18.7999 20.6 21.3 20.6 23.7 20.6C24.1 20.6 24.1 20.6 24.1 21C24.1 21.4 24.1 21.7 24.1 22.1C24.1 22.6 23.8999 22.8 23.3999 22.8C20.7999 22.8 18.2 22.8 15.6 22.8C13.6 22.8 11.5 22.8 9.49995 22.8C8.89995 22.8 8.69995 22.6 8.69995 22C8.69995 21.7 8.69995 21.3 8.69995 21C8.69995 20.7 8.69996 20.6 9.09996 20.6C10.1 20.6 11.1 20.6 12.1 20.6C13.5 20.6 14.8999 20.6 16.3999 20.6Z" fill="#E8DC4B"/>
      </svg>
