<svg width="51" height="53" viewBox="0 0 51 53" fill="none" xmlns="http://www.w3.org/2000/svg">
<path d="M31 36.4H19.8C15.7 36.4 12.3 33 12.3 28.9V13.5C12.3 6.29999 18.2 0.399994 25.4 0.399994C32.6 0.399994 38.5 6.29999 38.5 13.5V28.9C38.5 33 35.2 36.4 31 36.4ZM25.4 5.09999C20.8 5.09999 17 8.89999 17 13.5V28.9C17 30.5 18.3 31.7 19.8 31.7H31C32.6 31.7 33.8 30.4 33.8 28.9V13.5C33.9 8.89999 30.1 5.09999 25.4 5.09999Z" fill="#210B0B"/>
<path d="M43.5002 49.7H7.40015C4.90015 49.7 2.90015 47.7 2.90015 45.2V21.8C2.90015 19.3 4.90015 17.3 7.40015 17.3H43.5002C46.0002 17.3 48.0002 19.3 48.0002 21.8V45.2C47.9002 47.7 45.9002 49.7 43.5002 49.7Z" fill="white"/>
<path d="M31.8001 52.1H19.1001C8.9001 52.1 0.600098 43.8 0.600098 33.6C0.600098 23.4 8.9001 15.1 19.1001 15.1H31.8001C42.0001 15.1 50.3001 23.4 50.3001 33.6C50.3001 43.8 42.0001 52.1 31.8001 52.1ZM19.1001 19.8C11.5001 19.8 5.30009 26 5.30009 33.6C5.30009 41.2 11.5001 47.4 19.1001 47.4H31.8001C39.4001 47.4 45.6001 41.2 45.6001 33.6C45.6001 26 39.4001 19.8 31.8001 19.8H19.1001Z" fill="#210B0B"/>
<path d="M29.3 30.2C29.3 28 27.5 26.3 25.4 26.3C23.2 26.3 21.5 28.1 21.5 30.2C21.5 32 22.8 33.5 24.4 34V39H26.4V34C28.1 33.5 29.3 32 29.3 30.2Z" fill="#210B0B"/>
</svg>
