<svg width="33" height="33" viewBox="0 0 33 33" fill="none" xmlns="http://www.w3.org/2000/svg">
<path d="M16.6 32.4C25.2156 32.4 32.2 25.4156 32.2 16.8C32.2 8.18431 25.2156 1.19995 16.6 1.19995C7.98436 1.19995 1 8.18431 1 16.8C1 25.4156 7.98436 32.4 16.6 32.4Z" fill="white" stroke="#E8DC4B" stroke-width="0.9292" stroke-miterlimit="10"/>
<path d="M22.2999 27.2C21.9999 27.2 21.7999 27.1 21.4999 27L16.7999 24.6C16.6999 24.5 16.4999 24.5 16.3999 24.6L11.6999 27C11.0999 27.3 10.3999 27.3 9.89994 26.9C9.39994 26.5 9.09994 25.9 9.19994 25.2L10.0999 20C10.0999 19.9 10.0999 19.7 9.99994 19.6L6.19994 15.9C5.69994 15.4 5.59995 14.8 5.79995 14.1C5.99995 13.5 6.49994 13 7.19994 12.9L12.3999 12.1C12.4999 12.1 12.6999 12 12.6999 11.9L14.9999 7.19995C15.2999 6.59995 15.8999 6.19995 16.4999 6.19995C17.1999 6.19995 17.6999 6.59995 17.9999 7.19995L20.2999 11.9C20.3999 12 20.4999 12.1 20.5999 12.1L25.7999 12.9C26.3999 13 26.9999 13.4 27.1999 14.1C27.3999 14.8 27.1999 15.4 26.7999 15.9L22.9999 19.6C22.8999 19.7 22.8999 19.8 22.8999 20L23.7999 25.2C23.8999 25.8 23.6999 26.5 23.0999 26.9C22.9999 27.1 22.5999 27.2 22.2999 27.2Z" fill="#E8DC4B"/>
</svg>
