<svg width="21" height="23" viewBox="0 0 21 23" fill="none" xmlns="http://www.w3.org/2000/svg">
<path fill-rule="evenodd" clip-rule="evenodd" d="M7.26372 11.7463C8.24522 12.4715 9.46268 12.8986 10.7869 12.8986C12.1099 12.8986 13.3263 12.4723 14.3074 11.7484C18.2375 13.2428 21.0001 17.0414 21.0001 21.4979C21.0001 22.1428 20.4626 22.7877 19.7102 22.7877H1.86735C1.11494 22.7877 0.577521 22.2503 0.577521 21.4979C0.493399 17.0394 3.30609 13.2393 7.26372 11.7463Z" fill="white"/>
<path d="M10.787 11.8236C7.50269 11.8236 4.87524 9.19612 4.87524 5.91179C4.87524 2.62746 7.50269 0 10.787 0C14.0713 0 16.6988 2.62746 16.6988 5.91179C16.6988 9.19612 14.0713 11.8236 10.787 11.8236Z" fill="white"/>
</svg>
