<svg width="15" height="18" viewBox="0 0 15 18" fill="none" xmlns="http://www.w3.org/2000/svg">
<path d="M3.30078 14.1V1H14.3008V14.1C14.4008 15.6 13.3008 16.9 11.9008 17" stroke="#6242FA" stroke-miterlimit="10" stroke-linecap="round" stroke-linejoin="round"/>
<path d="M9.80083 14H1.40083C1.30083 15.5 2.40083 16.9 4.00083 17H12.4008C10.8008 16.9 9.70083 15.6 9.80083 14Z" stroke="#6242FA" stroke-miterlimit="10" stroke-linecap="round" stroke-linejoin="round"/>
<path d="M8.30078 7.5H12.3008" stroke="#6242FA" stroke-miterlimit="10" stroke-linejoin="round"/>
<path d="M5.30078 7.5H6.30078" stroke="#6242FA" stroke-miterlimit="10" stroke-linejoin="round"/>
<path d="M8.30078 10.5H12.3008" stroke="#6242FA" stroke-miterlimit="10" stroke-linejoin="round"/>
<path d="M5.30078 10.5H6.30078" stroke="#6242FA" stroke-miterlimit="10" stroke-linejoin="round"/>
<path d="M8.30078 4.5H12.3008" stroke="#6242FA" stroke-miterlimit="10" stroke-linejoin="round"/>
<path d="M5.30078 4.5H6.30078" stroke="#6242FA" stroke-miterlimit="10" stroke-linejoin="round"/>
<path d="M9.80083 14H1.40083C1.30083 15.5 2.40083 16.9 4.00083 17H12.4008C10.8008 16.9 9.70083 15.6 9.80083 14Z" fill="#6242FA"/>
</svg>
