<svg width="29" height="13" viewBox="0 0 29 13" fill="none" xmlns="http://www.w3.org/2000/svg">
<path d="M0.900146 6.90015C0.900146 5.40015 0.900146 3.80015 0.900146 2.30015C0.900146 1.50015 1.40015 0.900146 2.20015 0.900146C3.30015 0.900146 4.40015 0.900146 5.50014 0.900146C6.30015 0.900146 6.80014 1.40015 6.80014 2.30015C6.80014 3.10015 6.80014 3.10015 7.60014 2.90015C8.30014 2.70015 9.00015 2.60015 9.70015 2.40015C10.2001 2.30015 10.7001 2.30015 11.2001 2.40015C12.9001 2.80015 14.5001 3.30015 16.1001 3.80015C16.3001 3.90015 16.5001 3.80014 16.7001 3.70014C17.6001 3.10014 18.5001 2.60014 19.4001 2.00014C20.3001 1.50014 21.2001 1.50014 21.9001 2.20014C22.1001 2.30014 22.2001 2.40014 22.4001 2.20014C22.5001 2.10014 22.7001 2.00015 22.8001 1.90015C23.7001 1.40015 24.6001 1.50014 25.3001 2.20014C25.5001 2.30014 25.6001 2.40015 25.8001 2.30015C26.8001 2.00015 27.8001 2.50015 28.2001 3.40015C28.6001 4.30015 28.4001 5.40015 27.5001 6.00014C24.7001 8.00014 21.8001 10.0001 18.8001 11.7001C18.4001 11.9001 18.0001 12.1001 17.6001 12.3001C16.7001 12.9001 15.7001 12.7001 14.7001 12.5001C12.1001 12.0001 9.60014 11.5001 7.10014 11.0001C6.70014 10.9001 6.70015 10.9001 6.70015 11.3001C6.70015 11.5001 6.70015 11.7001 6.70015 11.9001C6.60015 12.4001 6.10014 12.8001 5.50014 12.8001C4.40015 12.8001 3.20014 12.8001 2.10014 12.8001C1.40014 12.8001 0.900146 12.3001 0.900146 11.6001C0.900146 10.1001 0.900146 8.50015 0.900146 6.90015ZM17.7001 4.20014C17.9001 4.30014 18.0001 4.40015 18.2001 4.40015C18.7001 4.50015 19.1001 4.70015 19.5001 5.00014C20.2001 5.50014 20.5001 6.20014 20.4001 7.10014C20.2001 8.20014 19.1001 9.00015 18.0001 8.90015C16.9001 8.80015 15.7001 8.60014 14.6001 8.50014C14.0001 8.40015 13.4001 8.40015 12.9001 8.30015C12.6001 8.20015 12.4001 8.00014 12.4001 7.70014C12.4001 7.40014 12.7001 7.30015 13.0001 7.30015C13.1001 7.30015 13.2001 7.30015 13.4001 7.30015C15.0001 7.50015 16.5001 7.70015 18.1001 7.90015C18.6001 8.00015 19.2001 7.60014 19.4001 7.10014C19.6001 6.60014 19.5001 6.10014 19.0001 5.70014C18.8001 5.50014 18.5001 5.40015 18.2001 5.30015C15.8001 4.60015 13.5001 3.90015 11.1001 3.30015C10.8001 3.20015 10.5001 3.10014 10.1001 3.20014C9.10014 3.40014 8.10014 3.70015 7.10014 4.00014C6.90014 4.10014 6.90015 4.20015 6.90015 4.40015C6.90015 6.10015 6.90015 7.90014 6.90015 9.60014C6.90015 9.90014 7.00015 10.0001 7.20015 10.0001C10.0001 10.6001 12.8001 11.2001 15.6001 11.7001C16.2001 11.8001 16.8001 11.8001 17.4001 11.4001C17.8001 11.2001 18.2001 11.0001 18.5001 10.8001C20.7001 9.50015 22.8001 8.10014 24.9001 6.70014C25.7001 6.20014 26.4001 5.70014 27.1001 5.10014C27.6001 4.70014 27.7001 4.10014 27.3001 3.60014C27.0001 3.20014 26.3001 3.00015 25.9001 3.30015C24.7001 4.00015 23.4001 4.80014 22.2001 5.50014C22.1001 5.60014 22.0001 5.60014 21.9001 5.70014C21.6001 5.80014 21.4001 5.70014 21.3001 5.50014C21.2001 5.30015 21.2001 5.10015 21.4001 4.90015C21.5001 4.80015 21.5001 4.80014 21.6001 4.70014C22.6001 4.10014 23.5001 3.60014 24.5001 3.00014C24.6001 3.00014 24.7001 2.90015 24.7001 2.80015C24.7001 2.70015 24.6001 2.70014 24.5001 2.60014C24.1001 2.40014 23.7001 2.50014 23.4001 2.70014C22.5001 3.20014 21.6001 3.70015 20.8001 4.30015C20.5001 4.50015 20.2001 4.40014 20.0001 4.20014C19.8001 3.90014 19.9001 3.70015 20.3001 3.50014C20.6001 3.30014 20.9001 3.20015 21.2001 3.00014C21.4001 2.90014 21.3001 2.80014 21.2001 2.70014C20.9001 2.60014 20.6001 2.50014 20.3001 2.70014C19.3001 3.20014 18.5001 3.70014 17.7001 4.20014ZM1.90015 7.00014C1.90015 8.50014 1.90015 10.0001 1.90015 11.5001C1.90015 11.9001 2.00015 12.0001 2.40015 12.0001C3.40015 12.0001 4.40015 12.0001 5.40015 12.0001C5.80015 12.0001 5.90015 11.9001 5.90015 11.5001C5.90015 8.50014 5.90015 5.40015 5.90015 2.40015C5.90015 2.00015 5.80015 1.90015 5.40015 1.90015C4.40015 1.90015 3.50014 1.90015 2.50014 1.90015C2.00014 1.90015 2.00014 2.00015 2.00014 2.40015C1.90014 4.00015 1.90015 5.50014 1.90015 7.00014Z" fill="#B79028"/>
</svg>
