<svg width="25" height="17" viewBox="0 0 25 17" fill="none" xmlns="http://www.w3.org/2000/svg">
<path d="M10.0002 0.40004C12.0002 0.40004 14.1002 0.40004 16.1002 0.40004C16.5002 0.40004 16.8002 0.500049 17.0002 0.800049C17.1002 1.00005 17.1002 1.20004 17.1002 1.40004C17.1002 2.00004 17.0002 1.90004 17.6002 1.90004C18.4002 1.90004 19.3002 1.90004 20.1002 1.90004C20.6002 1.90004 20.8002 2.10005 21.0002 2.50005C21.6002 3.80005 22.3002 5.10004 23.0002 6.40004C23.3002 7.10004 23.9002 7.70004 24.3002 8.20004C24.6002 8.60004 24.8002 9.00005 24.8002 9.50005C24.8002 11 24.8002 12.4 24.8002 13.9C24.8002 14.5 24.4002 14.8 23.9002 14.8C23.3002 14.8 22.7002 14.8 22.1002 14.8C21.9002 14.8 21.8002 14.9 21.7002 15C21.3002 16.2 20.1002 17 18.8002 17C17.6002 17 16.4002 16.2 16.0002 15C15.9002 14.8 15.8002 14.7 15.6002 14.7C14.3002 14.7 13.0002 14.7 11.8002 14.7C11.6002 14.7 11.5002 14.8 11.4002 15C11.0002 16.2 9.60018 17.1 8.30018 16.9C7.00018 16.8 6.20018 16.1 5.70018 14.9C5.60018 14.7 5.50018 14.7 5.30018 14.7C4.70018 14.7 4.20018 14.7 3.60018 14.7C3.20018 14.7 2.90018 14.4001 2.80018 14.1001C2.70018 13.7001 2.90018 13.4 3.20018 13.2C3.30018 13.1 3.50018 13.1001 3.60018 13.1001C4.10018 13.1001 4.70018 13.1001 5.20018 13.1001C5.40018 13.1001 5.50018 13 5.60018 12.9C6.00018 11.7 6.90018 11.1 8.10018 10.9C9.50018 10.7 10.9002 11.5 11.4002 12.9C11.5002 13.1 11.6002 13.2 11.8002 13.2C13.1002 13.2 14.4002 13.2 15.6002 13.2C15.8002 13.2 15.9002 13.1 16.0002 12.9C16.8002 10.8 19.4002 10.2 21.0002 11.7C21.4002 12.1 21.6002 12.5 21.8002 13C21.8002 13.1 21.9002 13.2 22.0002 13.2C22.3002 13.2 22.6002 13.2 23.0002 13.2C23.1002 13.2 23.2002 13.1 23.2002 13C23.2002 11.8 23.2002 10.6 23.2002 9.40004C23.2002 9.30004 23.1002 9.20005 23.1002 9.10005C22.8002 8.80005 22.6002 8.40005 22.3002 8.10005C22.2002 7.90005 22.0002 7.90004 21.8002 7.90004C20.0002 7.90004 18.2002 7.90004 16.5002 7.90004C15.8002 7.90004 15.5002 7.60004 15.5002 6.90004C15.5002 5.30004 15.5002 3.70004 15.5002 2.20004C15.5002 1.90004 15.4002 1.90004 15.2002 1.90004C11.4002 1.90004 7.60018 1.90004 3.80018 1.90004C3.20018 1.90004 2.90019 1.60005 2.90019 1.00005C2.90019 0.700046 3.20018 0.400049 3.50018 0.300049C3.70018 0.300049 3.80018 0.300049 4.00018 0.300049C5.90018 0.400049 7.90018 0.40004 10.0002 0.40004ZM19.2002 6.50005C19.8002 6.50005 20.4002 6.50005 21.0002 6.50005C21.3002 6.50005 21.3002 6.50004 21.2002 6.20004C20.8002 5.40004 20.4002 4.60005 20.0002 3.80005C19.9002 3.60005 19.8002 3.60005 19.6002 3.60005C18.9002 3.60005 18.2002 3.60005 17.4002 3.60005C17.2002 3.60005 17.1002 3.70004 17.1002 3.90004C17.1002 4.70004 17.1002 5.50005 17.1002 6.30005C17.1002 6.50005 17.2002 6.60005 17.4002 6.60005C18.0002 6.50005 18.6002 6.50005 19.2002 6.50005ZM20.4002 14.1001C20.4002 13.3001 19.8002 12.6001 18.9002 12.6001C18.1002 12.6001 17.4002 13.3001 17.4002 14.1001C17.4002 14.9001 18.1002 15.6001 18.9002 15.6001C19.7002 15.6001 20.4002 14.9001 20.4002 14.1001ZM7.10018 14.1001C7.10018 14.9001 7.70018 15.6001 8.60018 15.6001C9.40018 15.6001 10.1002 14.9001 10.1002 14.1001C10.1002 13.3001 9.40018 12.6001 8.60018 12.6001C7.70018 12.6001 7.10018 13.2001 7.10018 14.1001Z" fill="#B94B30"/>
<path d="M4.70009 6.5C5.70009 6.5 6.80008 6.5 7.80008 6.5C8.30008 6.5 8.70009 6.8 8.70009 7.3C8.70009 7.8 8.40008 8.10001 7.80008 8.10001C5.70008 8.10001 3.60008 8.10001 1.50008 8.10001C1.10008 8.10001 0.700085 7.9 0.700085 7.5C0.600085 7.1 0.800083 6.80001 1.10008 6.60001C1.20008 6.50001 1.40008 6.5 1.60008 6.5C2.60008 6.5 3.70009 6.5 4.70009 6.5Z" fill="#B94B30"/>
<path d="M6.00015 5.10001C4.90015 5.10001 3.90015 5.10001 2.80015 5.10001C2.40015 5.10001 2.10015 4.9 2.00015 4.5C1.90015 4.2 2.00015 3.80001 2.30015 3.60001C2.50015 3.50001 2.60015 3.5 2.80015 3.5C4.90015 3.5 7.00014 3.5 9.10014 3.5C9.60014 3.5 10.0001 3.8 9.90015 4.3C9.90015 4.8 9.50015 5.10001 9.00015 5.10001C8.10015 5.10001 7.00015 5.10001 6.00015 5.10001Z" fill="#B94B30"/>
<path d="M4.5 11.0002C4 11.0002 3.4 11.0002 2.9 11.0002C2.4 11.0002 2 10.7001 2 10.2001C2 9.70015 2.3 9.40015 2.8 9.40015C3.5 9.40015 4.3 9.40015 5 9.40015C5.4 9.40015 5.8 9.40015 6.2 9.40015C6.9 9.50015 7.2 10.1002 6.9 10.6002C6.7 10.9002 6.5 11.0002 6.2 11.0002C5.6 11.0002 5 11.0002 4.5 11.0002Z" fill="#B94B30"/>
</svg>
