<svg width="28" height="17" viewBox="0 0 28 17" fill="none" xmlns="http://www.w3.org/2000/svg">
<path d="M10.3502 0C12.6574 0 14.8288 0 17.136 0C17.5431 0 17.9502 -2.72505e-06 18.2217 0.474997C18.3574 0.712497 18.3574 0.831247 18.3574 1.06875C18.3574 1.6625 18.3574 1.54375 18.9002 1.54375C19.8502 1.54375 20.8002 1.54375 21.7502 1.54375C22.2931 1.54375 22.5645 1.78125 22.8359 2.1375C23.5145 3.44375 24.3288 4.63125 25.0074 5.9375C25.4145 6.65 25.9574 7.125 26.5002 7.71875C26.9074 8.075 27.0431 8.55 27.0431 9.025C27.0431 10.45 27.0431 11.875 27.0431 13.3C27.0431 13.8937 26.636 14.1312 26.0931 14.1312C25.4145 14.1312 24.736 14.1312 24.0574 14.1312C23.786 14.1312 23.786 14.1312 23.6502 14.3687C23.1074 15.5562 21.886 16.2687 20.3931 16.2687C19.036 16.2687 17.6788 15.4375 17.2717 14.3687C17.136 14.1312 17.0002 14.1312 16.8645 14.1312C15.5074 14.1312 14.0145 14.1312 12.6574 14.1312C12.3859 14.1312 12.2502 14.25 12.2502 14.3687C11.7074 15.5562 10.2145 16.3875 8.85739 16.2687C7.50025 16.15 6.41453 15.4375 6.00738 14.3687C5.87167 14.25 5.87167 14.1312 5.60024 14.1312C4.92167 14.1312 4.37882 14.1312 3.70025 14.1312C3.2931 14.1312 2.88595 13.8937 2.88595 13.5375C2.75024 13.1812 3.02167 12.825 3.2931 12.7062C3.42881 12.5875 3.56452 12.5875 3.83595 12.5875C4.3788 12.5875 5.05738 12.5875 5.60024 12.5875C5.87167 12.5875 5.87167 12.4687 6.00738 12.35C6.55024 11.2812 7.36453 10.5687 8.72167 10.3313C10.2145 10.0938 11.8431 10.925 12.386 12.2312C12.5217 12.4687 12.5217 12.4687 12.7931 12.4687C14.1502 12.4687 15.6431 12.4687 17.0002 12.4687C17.2717 12.4687 17.4074 12.35 17.4074 12.2312C18.2217 10.2125 21.2074 9.61875 22.9717 11.0437C23.3788 11.4 23.6502 11.7562 23.9217 12.2312C23.9217 12.35 24.0574 12.4687 24.1931 12.4687C24.6002 12.4687 24.8717 12.4687 25.2788 12.4687C25.4145 12.4687 25.5502 12.4687 25.5502 12.2312C25.5502 11.0437 25.5502 9.85625 25.5502 8.7875C25.5502 8.66875 25.5502 8.55 25.4145 8.55C25.1431 8.19375 24.8717 7.95625 24.6002 7.6C24.4645 7.3625 24.3288 7.3625 24.0574 7.3625C22.0217 7.3625 20.1217 7.3625 18.0859 7.3625C17.2717 7.3625 17.0002 7.125 17.0002 6.4125C17.0002 4.86875 17.0002 3.325 17.0002 1.78125C17.0002 1.54375 16.8645 1.425 16.5931 1.425C12.386 1.425 8.04309 1.425 3.83595 1.425C3.15738 1.425 2.88595 1.06875 2.88595 0.59375C2.88595 0.2375 3.15738 0 3.56452 0C3.70024 0 3.97168 0 4.10739 0C5.87168 0 8.04309 0 10.3502 0ZM20.5288 5.81875C21.2074 5.81875 21.886 5.81875 22.5645 5.81875C22.836 5.81875 22.836 5.81875 22.7002 5.58125C22.2931 4.75 21.7502 4.0375 21.3431 3.20625C21.2074 3.0875 21.0717 2.96875 20.936 2.96875C20.1217 2.96875 19.3074 2.96875 18.4931 2.96875C18.2217 2.96875 18.2217 3.0875 18.2217 3.20625C18.2217 3.91875 18.2217 4.75 18.2217 5.4625C18.2217 5.7 18.3574 5.7 18.4931 5.7C19.1717 5.81875 19.8502 5.81875 20.5288 5.81875ZM21.886 13.3C21.886 12.4688 21.2074 11.875 20.2574 11.875C19.3074 11.875 18.6288 12.4688 18.6288 13.3C18.6288 14.1312 19.3074 14.725 20.2574 14.725C21.0717 14.725 21.886 14.1312 21.886 13.3ZM7.0931 13.3C7.0931 14.1312 7.77167 14.725 8.72167 14.725C9.67167 14.725 10.3502 14.1312 10.3502 13.3C10.3502 12.4688 9.67167 11.875 8.72167 11.875C7.77167 11.875 7.0931 12.4688 7.0931 13.3Z" fill="#333333"/>
<path d="M4.51465 5.9375C5.73608 5.9375 6.82181 5.9375 8.04323 5.9375C8.58609 5.9375 8.99323 6.29375 8.99323 6.65C8.99323 7.125 8.58609 7.48125 8.04323 7.48125C5.73609 7.48125 3.42895 7.48125 0.986095 7.48125C0.443238 7.48125 0.171814 7.24375 0.0360996 6.8875C-0.0996147 6.53125 0.171797 6.175 0.443226 6.05625C0.57894 5.9375 0.850381 5.9375 0.986095 5.9375C2.20752 5.9375 3.29323 5.9375 4.51465 5.9375Z" fill="#333333"/>
<path d="M5.87177 4.5125C4.65034 4.5125 3.42893 4.5125 2.34321 4.5125C1.93607 4.5125 1.66463 4.275 1.52892 3.91875C1.39321 3.5625 1.52892 3.20625 1.93607 3.0875C2.07178 2.96875 2.3432 2.96875 2.47892 2.96875C4.78606 2.96875 7.22893 2.96875 9.53607 2.96875C10.0789 2.96875 10.4861 3.325 10.4861 3.8C10.4861 4.275 10.0789 4.5125 9.53607 4.5125C8.17893 4.5125 6.95749 4.5125 5.87177 4.5125Z" fill="#333333"/>
<path d="M4.24334 10.3315C3.70048 10.3315 3.02191 10.3315 2.47905 10.3315C1.93619 10.3315 1.52905 9.97522 1.52905 9.61897C1.52905 9.14397 1.93619 8.90647 2.47905 8.78772C3.29333 8.78772 4.10762 8.78772 4.92191 8.78772C5.32905 8.78772 5.73621 8.78772 6.14335 8.78772C6.95764 8.78772 7.22905 9.38147 6.95762 9.97522C6.82191 10.2127 6.55049 10.3315 6.14335 10.3315C5.46478 10.3315 4.7862 10.3315 4.24334 10.3315Z" fill="#333333"/>
</svg>
