<svg width="51" height="31" viewBox="0 0 51 31" fill="none" xmlns="http://www.w3.org/2000/svg">
<path fill-rule="evenodd" clip-rule="evenodd" d="M31.719 9.85965C31.3861 9.48538 30.9831 9.1579 30.5217 8.90058C30.0662 8.64327 29.5639 8.41521 29.0266 8.22222C28.4951 8.02924 27.9169 7.85965 27.3212 7.7193C26.7255 7.57895 26.1181 7.44445 25.4932 7.30409C24.8274 7.1579 24.255 7.0117 23.7995 6.8655C23.3498 6.72515 22.976 6.56725 22.6956 6.40936C22.4328 6.25731 22.2401 6.08772 22.1233 5.89474C22.0123 5.7076 21.9539 5.46784 21.9539 5.18713C21.9539 4.88889 22.024 4.61988 22.1583 4.38596C22.2985 4.1462 22.5029 3.93567 22.7657 3.76023C23.0402 3.57895 23.379 3.4386 23.7761 3.33333C24.1849 3.22807 24.6522 3.18129 25.1778 3.18129C27.3621 3.18129 28.501 3.99415 28.6587 5.67251L28.6762 5.8655H32.3731L32.3614 5.63743C32.3147 4.75439 32.1103 3.95322 31.754 3.25731C31.3919 2.5614 30.8897 1.95906 30.2589 1.47368C29.6282 0.994152 28.8631 0.619883 27.987 0.374269C27.1168 0.128655 26.1356 0 25.0727 0C24.0973 0 23.1921 0.116959 22.3861 0.350877C21.5743 0.584795 20.8618 0.918129 20.2719 1.33918C19.6762 1.76023 19.1914 2.27485 18.8469 2.8655C18.4964 3.45614 18.292 4.12281 18.2395 4.83626C18.2219 5.05263 18.2161 5.26901 18.2336 5.47368C18.2453 5.67251 18.2687 5.87135 18.292 6.06433C18.3913 6.83626 18.6308 7.47953 19.0104 7.98246C19.3842 8.47953 19.8806 8.91228 20.4938 9.25731C21.0954 9.59649 21.8021 9.88889 22.608 10.1228C23.3965 10.3509 24.2842 10.5848 25.242 10.807C25.8903 10.9708 26.4685 11.1287 26.9591 11.2807C27.4322 11.4269 27.8293 11.5906 28.1389 11.7778C28.4367 11.9532 28.6587 12.1579 28.8047 12.3801C28.9448 12.5965 29.0149 12.8596 29.0149 13.1579C29.0149 13.5088 28.9332 13.8246 28.7755 14.0936C28.6178 14.3684 28.3842 14.6082 28.0863 14.8012C27.7826 15 27.3971 15.152 26.9533 15.2573C26.4977 15.3684 25.9838 15.4211 25.4289 15.4211C24.8507 15.4211 24.3134 15.3509 23.817 15.2222C23.3322 15.0936 22.9001 14.8947 22.5321 14.6316C22.17 14.3743 21.8722 14.0468 21.6502 13.6608C21.4283 13.2749 21.294 12.807 21.2414 12.2807L21.2239 12.0819H17.5678L17.5795 12.3099C17.6963 14.3509 18.4322 15.9298 19.7755 17C21.1071 18.0643 23.0402 18.6082 25.5165 18.6082C26.5503 18.6082 27.5198 18.4795 28.39 18.2281C29.266 17.9766 30.0428 17.6023 30.6853 17.1228C31.3335 16.6374 31.8533 16.0409 32.2213 15.3509C32.5892 14.655 32.7761 13.8596 32.7761 12.9883C32.7761 12.3099 32.6827 11.7018 32.4958 11.193C32.3147 10.6901 32.0519 10.2398 31.719 9.85965Z" fill="white"/>
<path fill-rule="evenodd" clip-rule="evenodd" d="M10.244 7.0062C10.1389 7.32199 9.96366 7.591 9.73589 7.80737C9.50227 8.02375 9.19273 8.19334 8.81895 8.31614C8.43349 8.43895 7.94874 8.50913 7.37054 8.52667C7.16613 8.54421 6.95003 8.55006 6.73978 8.55006H3.91888V3.31614H6.02726C6.68138 3.31614 7.28293 3.33369 7.82609 3.36878C8.35756 3.40386 8.78391 3.46819 9.08761 3.56176C9.2745 3.62609 9.44971 3.7255 9.61908 3.86585C9.78845 4.0062 9.92862 4.17579 10.0454 4.37462C10.1622 4.5793 10.2557 4.81322 10.3258 5.06468C10.39 5.31614 10.425 5.58515 10.425 5.86C10.4134 6.29275 10.355 6.67872 10.244 7.0062ZM14.1921 4.00035C14.0461 3.45065 13.8125 2.93018 13.4912 2.45065C13.1759 1.95942 12.8021 1.55006 12.3874 1.24012C11.9727 0.930179 11.4938 0.684565 10.9624 0.503278C10.4367 0.321992 9.85269 0.199185 9.22193 0.134857C8.60286 0.07053 7.90785 0.0412903 7.16613 0.0412903H2.48215H1.82803H1.17975C0.531473 0.0412903 0 0.567606 0 1.22258V1.83661V2.51497V18.6202H3.91304V11.8249H7.061C8.22907 11.8249 9.2745 11.6963 10.1798 11.439C11.0909 11.1816 11.8735 10.7898 12.4984 10.2752C13.1233 9.76059 13.608 9.11147 13.9293 8.35123C14.2446 7.59685 14.4082 6.7138 14.4082 5.7255C14.4082 5.12901 14.3323 4.54421 14.1921 4.00035Z" fill="white"/>
<path fill-rule="evenodd" clip-rule="evenodd" d="M46.2031 14.7661C45.6833 15.152 44.8599 15.345 43.7619 15.345H40.573V10.7134H43.5633C44.2116 10.7134 44.7723 10.7602 45.2161 10.8538C45.6483 10.9474 45.9929 11.0877 46.2499 11.269C46.4952 11.4503 46.6704 11.6784 46.7813 11.9591C46.8981 12.2515 46.9565 12.614 46.9565 13.0292C46.9565 13.8246 46.7054 14.3918 46.2031 14.7661ZM40.573 3.31579H43.4523C44.013 3.31579 44.4861 3.36257 44.8657 3.45029C45.2336 3.53801 45.5315 3.66667 45.7534 3.83041C45.9695 3.9883 46.1214 4.18713 46.2207 4.43275C46.32 4.68421 46.3725 4.9883 46.3725 5.33333C46.3725 6.10526 46.1623 6.64912 45.7418 6.95906C45.3037 7.2807 44.5912 7.44444 43.6275 7.44444H40.573V3.31579ZM50.7353 11.5556C50.5951 11.0819 50.3673 10.6433 50.0753 10.2632C49.7833 9.88304 49.4095 9.54386 48.9773 9.26316C48.6795 9.07018 48.3407 8.90058 47.9669 8.77193C48.6386 8.38596 49.17 7.90643 49.538 7.35088C49.9935 6.66082 50.2213 5.83041 50.2213 4.88889C50.2213 4.14035 50.0695 3.46199 49.7774 2.8655C49.4854 2.26901 49.0474 1.75439 48.4867 1.33333C47.9319 0.918128 47.2486 0.596491 46.4543 0.374269C45.6658 0.157894 44.7723 0.0467834 43.7911 0.0467834H39.1597H38.196H37.8631C37.209 0.0467834 36.6833 0.573099 36.6833 1.22807V1.51462V2.52632V18.6316H43.9604C46.2499 18.6316 48.002 18.1462 49.17 17.1871C50.3498 16.2164 50.9455 14.8304 50.9455 13.0585C50.9455 12.5322 50.8754 12.0292 50.7353 11.5556Z" fill="white"/>
<path d="M6.30385 26.3623C6.03519 25.2863 5.00729 24.8945 4.16043 24.8945C2.85803 24.8945 1.84765 25.912 1.84765 27.3155C1.84765 28.7249 2.85803 29.7658 4.16043 29.7658C4.97809 29.7658 5.85414 29.3857 6.25712 28.415H3.79249V27.45H7.38431C7.33759 28.0114 7.29087 28.3857 7.20326 28.6021V28.5904C6.74771 29.8652 5.37523 30.6898 4.16627 30.6898C2.29736 30.6898 0.889832 29.2805 0.889832 27.3155C0.889832 25.3448 2.32656 23.9296 4.16627 23.9296C5.43947 23.9296 6.98717 24.5845 7.33759 26.3623H6.30385Z" fill="white"/>
<path d="M11.7821 29.6781H14.9125V30.643H10.8184V23.9764H11.7821V29.6781Z" fill="white"/>
<path d="M18.5978 24.8945C19.2052 24.2746 20.0638 23.8828 20.9982 23.8828C21.9385 23.8828 22.7854 24.2746 23.4044 24.8945C24.006 25.5144 24.3973 26.3623 24.3973 27.3039C24.3973 28.2454 24.006 29.0933 23.4044 29.7132C22.7854 30.3448 21.9385 30.7249 20.9982 30.7249C20.0638 30.7249 19.2111 30.3448 18.5978 29.7132C17.9963 29.0933 17.605 28.2454 17.605 27.3039C17.605 26.3623 17.9963 25.5144 18.5978 24.8945ZM22.7211 25.5787C22.2714 25.1284 21.6523 24.8536 20.9982 24.8536C20.3441 24.8536 19.7309 25.1284 19.2928 25.5787C18.8548 26.0173 18.5803 26.6255 18.5803 27.3039C18.5803 27.9822 18.8548 28.5904 19.2928 29.029C19.7309 29.4793 20.3383 29.7541 20.9982 29.7541C21.6582 29.7541 22.2714 29.4793 22.7211 29.029C23.1475 28.5904 23.4278 27.9881 23.4278 27.3039C23.4278 26.6196 23.1475 26.0173 22.7211 25.5787Z" fill="white"/>
<path d="M30.629 23.9764C31.4642 23.9764 32.0015 24.4559 32.2468 25.0699C32.5154 25.7249 32.4278 26.491 31.762 26.9647C32.5213 27.2863 32.8016 27.9939 32.8016 28.6255C32.8016 29.6255 32.1475 30.6372 30.8684 30.6372H27.8607V23.9764H30.629ZM28.8068 26.6255H30.6056C31.6511 26.6255 31.6744 24.8886 30.6231 24.8886H28.8068V26.6255ZM28.8068 29.7074H30.8626C31.5109 29.7074 31.8321 29.1635 31.8321 28.6372C31.8321 28.1109 31.5109 27.5787 30.8626 27.5787H28.8068V29.7074Z" fill="white"/>
<path d="M39.9326 28.6781H37.5381C37.2811 29.2863 36.9482 30.0875 36.7379 30.643H35.6984L38.3733 23.8828H39.0799L41.7548 30.643H40.7269L39.9326 28.6781ZM37.9002 27.7717H39.5588L38.7412 25.415L37.9002 27.7717Z" fill="white"/>
<path d="M45.6562 29.6781H48.7867V30.643H44.6926V23.9764H45.6562V29.6781Z" fill="white"/>
</svg>
