<svg width="17" height="20" viewBox="0 0 17 20" fill="none" xmlns="http://www.w3.org/2000/svg">
<path d="M0.899933 10.2C0.899933 7.30001 0.899933 4.49998 0.899933 1.59998C0.899933 0.899976 1.19993 0.599976 1.89993 0.599976C6.29993 0.599976 10.6999 0.599976 15.0999 0.599976C15.1999 0.599976 15.1999 0.599976 15.2999 0.599976C15.7999 0.599976 16.0999 0.9 16.0999 1.5C16.0999 2.2 16.0999 2.8 16.0999 3.5C16.0999 8.6 16.0999 13.7 16.0999 18.8C16.0999 18.9 16.0999 19 16.0999 19.1C16.0999 19.7 15.8 20 15.2 20C14.8 20 14.3999 20 13.9999 20C9.99994 20 5.89993 20 1.89993 20C1.79993 20 1.79995 20 1.69995 20C1.09995 20 0.799927 19.7 0.799927 19.1C0.799927 18.5 0.799927 17.9 0.799927 17.3C0.899927 14.8 0.899933 12.5 0.899933 10.2ZM3.79993 2C3.39993 2 2.99995 2 2.59995 2C2.39995 2 2.29993 2.09999 2.29993 2.29999C2.29993 3.49999 2.29993 4.8 2.29993 6C2.29993 7.3 2.29993 8.60002 2.29993 9.90002C2.29993 11.1 2.29993 12.3 2.29993 13.4C2.29993 14.4 2.29993 15.3 2.29993 16.3C2.29993 16.9 2.29993 17.5 2.29993 18.1C2.29993 18.3 2.39995 18.4 2.59995 18.4C3.39995 18.4 4.09993 18.4 4.89993 18.4C6.39993 18.4 7.79993 18.4 9.29993 18.4C10.0999 18.4 10.9 18.4 11.7 18.4C12.6 18.4 13.4999 18.4 14.3999 18.4C14.5999 18.4 14.7 18.3 14.7 18.1C14.7 16.9 14.7 15.7 14.7 14.5C14.7 13.2 14.7 11.8 14.7 10.5C14.7 9.3 14.7 8.2 14.7 7C14.7 6 14.7 5.09998 14.7 4.09998C14.7 3.49998 14.7 2.90001 14.7 2.20001C14.7 2.00001 14.5999 1.90002 14.3999 1.90002C13.6999 1.90002 12.9 1.90002 12.2 1.90002C10.9 1.90002 9.59993 1.90002 8.29993 1.90002C6.79993 2.00002 5.29993 2.1 3.79993 2Z" fill="#797979"/>
<path d="M10.1 9.20002C9.09998 9.20002 7.99997 9.20002 6.99997 9.20002C6.89997 9.20002 6.89996 9.20002 6.79996 9.20002C6.29996 9.20002 6.09998 8.90001 6.09998 8.50001C6.09998 8.10001 6.39996 7.8 6.89996 7.8C7.49996 7.7 8.09998 7.8 8.69998 7.8C10.3 7.8 11.8 7.8 13.4 7.8C13.6 7.8 13.8 7.80001 14 8.00001C14.2 8.20001 14.3 8.39999 14.3 8.59999C14.2 8.89999 14.1 9.10002 13.8 9.20002C13.7 9.20002 13.5 9.3 13.4 9.3C12.1 9.2 11.1 9.20002 10.1 9.20002Z" fill="#797979"/>
<path d="M10.0999 11.3C11.0999 11.3 12.2 11.3 13.2 11.3C13.4 11.3 13.5999 11.3 13.7999 11.4C14.0999 11.6 14.1999 11.9 14.0999 12.2C13.9999 12.5 13.6999 12.7 13.2999 12.7C12.1999 12.7 11.0999 12.7 9.89993 12.7C8.79993 12.7 7.79995 12.7 6.69995 12.7C6.29995 12.7 5.99994 12.4 5.99994 12C5.99994 11.7 6.19995 11.3 6.59995 11.3C6.79995 11.3 6.99995 11.3 7.19995 11.3C8.19995 11.3 9.09995 11.3 10.0999 11.3Z" fill="#797979"/>
<path d="M13.2 5.59999C12.2 5.49999 11.2 5.59999 10.2 5.59999C8.99999 5.59999 7.89997 5.59999 6.79997 5.59999C6.49997 5.59999 6.29998 5.50002 6.09998 5.20002C5.99998 4.90002 5.99999 4.70004 6.19999 4.40004C6.29999 4.30004 6.39998 4.20002 6.59998 4.20002C6.89998 4.10002 7.19998 4.20002 7.49998 4.20002C8.49998 4.20002 9.49998 4.20002 10.5 4.20002C11.5 4.20002 12.5 4.20002 13.4 4.20002C13.7 4.20002 14 4.5 14 4.8C14 5.1 13.8 5.50001 13.4 5.50001C13.4 5.60001 13.3 5.59999 13.2 5.59999Z" fill="#797979"/>
<path d="M12 16.3C10.3 16.3 8.49997 16.3 6.79997 16.3C6.49997 16.3 6.29998 16.2 6.09998 15.9C5.99998 15.6 5.99999 15.4 6.19999 15.1C6.29999 14.9 6.49997 14.9 6.79997 14.9C7.89997 14.9 9.09999 14.9 10.2 14.9C11.3 14.9 12.3 14.9 13.4 14.9C13.9 14.9 14.3 15.4 14.1 15.9C14 16.2 13.7 16.3 13.4 16.3C12.9 16.3 12.5 16.3 12 16.3Z" fill="#797979"/>
<path d="M5.19992 12C5.19992 12.6 4.69991 13.1 4.09991 13.1C3.49991 13.1 2.8999 12.5 2.8999 11.9C2.8999 11.3 3.49991 10.7 4.09991 10.7C4.69991 10.9 5.19992 11.4 5.19992 12Z" fill="#797979"/>
<path d="M3.99991 9.59998C3.39991 9.59998 2.8999 9.1 2.8999 8.5C2.8999 7.9 3.49991 7.29999 4.09991 7.29999C4.69991 7.29999 5.29992 7.8 5.19992 8.5C5.19992 9.1 4.69991 9.59998 3.99991 9.59998Z" fill="#797979"/>
<path d="M5.19992 4.90002C5.19992 5.50002 4.69991 6.1 4.09991 6C3.49991 6 2.8999 5.39999 2.8999 4.79999C2.8999 4.19999 3.49991 3.70001 3.99991 3.70001C4.69991 3.70001 5.19992 4.20002 5.19992 4.90002Z" fill="#797979"/>
<path d="M5.19992 15.6C5.19992 16.3 4.69991 16.8 4.09991 16.8C3.49991 16.8 2.8999 16.3 2.8999 15.7C2.8999 15.1 3.49991 14.5 4.09991 14.5C4.69991 14.4 5.19992 14.9 5.19992 15.6Z" fill="#797979"/>
</svg>


